<svg xmlns="http://www.w3.org/2000/svg" xml:space="preserve" x="0" y="0" style="enable-background:new 0 0 256.5 796.1" viewBox="0 0 256.5 796.1">
	<style>.st0{fill:#ff5000}</style>
	<path d="M209.7 3.5 145 68.2l38.5 38.5L248.2 42c-12.7-12.8-25.6-25.7-38.5-38.5zM44.8 3.4c-1.2 1-38.3 38.2-38.6 38.8C32.8 69.9 63 96.3 87.6 125 61 152.6 33.2 179.4 6.2 206.8l38.7 38.7c40.3-40.3 80.7-80.6 121-120.9C125.6 84.2 85.2 43.8 44.8 3.4zM209.8 245.4l38.5-38.5c-21.6-21.5-43.2-43.1-64.7-64.7l-38.5 38.5c21.5 21.6 43.1 43.2 64.7 64.7z" class="st0"/>
	<path d="M45 1C31.3 14.7 17.5 28.4 3.7 42.3 31 69.6 58.5 97 86 124.5 58.5 152 31.1 179.4 3.5 206.9c13.9 13.7 27.7 27.4 41.3 41.3h.1c40.9-41.4 82.4-82.4 123.6-123.7L45 1zm-.1 244.4L6.2 206.7c27-27.4 54.8-54.1 81.4-81.8C63 96.3 32.8 69.9 6.2 42.2c.3-.5 37.4-37.8 38.6-38.8 40.4 40.4 80.8 80.7 121.1 121.1-40.3 40.3-80.6 80.6-121 120.9zM142.4 180.8c22.3 22.5 45.1 44.7 67.3 67.4h.1c13.4-14 27.6-27.4 41.1-41.3l-67.3-67.3c-13.7 13.7-27.4 27.5-41.2 41.2zm105.9 26.1-38.5 38.5-64.7-64.7 38.5-38.5c21.6 21.5 43.2 43.1 64.7 64.7zM250.9 42c-.6-.8-40.8-40.9-41.1-41.1l-67.3 67.3c13.7 13.7 27.4 27.4 41.2 41.1 22.4-22.4 45.1-44.7 67.2-67.3zM145.1 68.1l64.7-64.7 38.5 38.5-64.7 64.7c-12.8-12.7-25.7-25.6-38.5-38.5zM221.9 591h30.5v-46.9h-46.9v30.8c0 2.2-.4 2.7-2.7 2.7H172v46.9h46.8v-30.4c0-.5-.1-1.2.2-1.6.3-.5.8-1 1.3-1.3.4-.2 1-.2 1.6-.2zM121.2 644.8c-.5 0-1.2.1-1.6-.2-.5-.3-1-.8-1.2-1.3-.2-.4-.1-1-.1-1.5v-30.7H87.6c-2.3 0-2.9-.5-2.9-2.9v-30.7h-31c-2.1 0-2.6-.5-2.6-2.6v-30.8H4.2v46.8H35.8c1.2.1 1.8.8 1.8 1.9V624.4h30.7c2.3 0 2.8.6 2.8 2.8V658H102c2.2 0 2.6.5 2.6 2.6v14.8c0 2.3-.5 2.8-2.8 2.8H71.2V708.8c0 2.5-.5 3-3 3H39.1c-.5 0-.9 0-1.4.1v31.6c-.1 1.1-.7 1.7-1.8 1.8-.4 0-.9.1-1.3.1H4.2v46.9h46.9v-30.8c0-2.2.4-2.7 2.7-2.7h30.9v-30.7c0-2.3.5-2.9 2.9-2.9h30.7V694.6c0-.5 0-.9.1-1.4.1-.8.6-1.3 1.4-1.5.5-.1 1-.1 1.5-.1h30.5v-46.9h-1.5c-9.8.1-19.4.1-29.1.1zM222.1 745.5h-1c-1.6-.1-2.2-.6-2.3-2.3v-31.3H172v46.9h30.7c2.2 0 2.7.4 2.7 2.6V792.3h46.9v-46.9h-1.5c-9.5.1-19.1.1-28.7.1z" class="st0"/>
	<path d="M121.4 643.1c-1.6 0-1.6 0-1.6-1.6v-32H86.3v-33.6H52.7v-33.5H2.4v50.3h32.4c1.1 0 1.3.3 1.3 1.3v32.3h33.6v33.6h33.4v16.8H69.6v33.6H36.1v32.1c0 1.5 0 1.5-1.5 1.5H2.4v50.3h50.4v-33.6h33.5v-33.5h33.5v-33.6h33.5v-50.3H152c-10.2-.1-20.4-.1-30.6-.1zm30.3 48.6h-30.5c-.5 0-1 .1-1.5.1-.8.1-1.3.6-1.4 1.5 0 .5-.1.9-.1 1.4V725.3H87.5c-2.3 0-2.9.5-2.9 2.9v30.7H53.7c-2.2 0-2.7.5-2.7 2.7v30.8H4.1v-46.9h30.4c.4 0 .9 0 1.3-.1 1.1-.1 1.7-.7 1.8-1.8V712c.5 0 1-.1 1.4-.1h29.1c2.5 0 3-.5 3-3V678.3h30.6c2.3 0 2.8-.5 2.8-2.8v-14.8c0-2.1-.5-2.6-2.6-2.6H71v-30.8c0-2.3-.6-2.8-2.8-2.8H37.5V592.9c-.1-1.1-.7-1.8-1.8-1.9H4.1v-46.8H51V575c0 2.2.5 2.6 2.6 2.6h31v30.7c0 2.3.5 2.9 2.9 2.9h30.7v30.7c0 .5-.1 1.1.1 1.5.3.5.7 1 1.2 1.3.4.2 1.1.2 1.6.2h30.5c.1 15.5.1 31.1.1 46.8zM220.5 624.8v-30.9c0-1 .3-1.3 1.3-1.3h32.3v-50.2h-50.2v33.5h-33.4v50.2h50.2c-.2-.4-.2-.9-.2-1.3zm-1.5-32.3c-.2.4-.2 1.1-.2 1.6v30.4H172v-46.9h30.8c2.2 0 2.7-.4 2.7-2.7v-30.8h46.9V591h-30.5c-.5 0-1.2-.1-1.6.2-.5.3-1 .8-1.3 1.3zM252.5 743.9h-30.6c-1.1 0-1.4-.3-1.4-1.4v-32.2h-50.1v50.3h33.4v33.5H254v-50.2h-1.5zm-.2 48.5h-46.9V761.5c0-2.2-.5-2.6-2.7-2.6H172V712h46.8v31.3c.1 1.6.7 2.2 2.3 2.3h31.2v46.8zM147.5 353.8c.4 1.4.8 2.7 1.4 4 .4.8.7 1.7 1.2 2.6.6 1.1 1.3 2.1 2 3.1 1.2 1.8 2.6 3.4 4.2 4.8.9.8 1.9 1.6 2.9 2.4.8.6 1.7 1.2 2.5 1.7 1.1.6 2.3 1.2 3.5 1.7.3.1.6.3.9.4 1.7.5 3.3 1.1 5.1 1.5 2.1.4 4.2.7 6.4.7.7 0 1.3-.2 2-.2 1.4 0 2.7-.3 4-.6 1.5-.2 2.8-.7 4.2-1.2 1.9-.6 3.7-1.5 5.4-2.6 1.2-.7 2.4-1.7 3.5-2.5 1.7-1.2 3.1-2.8 4.4-4.4 1.4-1.7 2.7-3.7 3.6-5.7.5-1 .9-2 1.4-3.1.6-1.4.9-2.9 1.3-4.4.2-.7.3-1.5.4-2.3.1-1 .3-2 .3-3 0-1.2 0-2.5.2-3.7l.3-1.8c.8-2.4 2.1-4.4 4-6 .7-.6 1.5-1.1 2.3-1.6 2-1.1 4.3-1.4 6.6-1.4 1.6 0 3.2-.1 4.7-.4 2.2-.4 4.4-1 6.5-1.9 2.6-1.1 5.1-2.6 7.4-4.3 1.7-1.4 3.3-2.8 4.6-4.5 1.4-1.7 2.7-3.6 3.7-5.6s1.9-4.2 2.5-6.4c.5-2 .9-4 .9-6 0-.3.1-.5.1-.8v-2.4c0-.3-.1-.7-.1-1-.1-.9-.1-1.9-.2-2.8-.4-2.3-1-4.6-1.9-6.8-.9-2.1-2-4.1-3.3-6-1.1-1.6-2.4-3.1-3.8-4.5-2.2-2.2-4.7-4-7.4-5.4-2.4-1.2-4.9-2.2-7.5-2.7-1.3-.2-2.6-.6-4-.7-2.6-.1-5.2-.2-7.7.3-2.2.4-4.4 1-6.4 1.8-.5.2-1.1.4-1.6.7l-3.3 1.8c-.7.4-1.3.9-2 1.4-1.7 1.1-3.1 2.5-4.4 3.9-1.4 1.6-2.7 3.2-3.8 5.1-.9 1.5-1.7 3-2.3 4.6s-1.1 3.2-1.5 4.9c-.4 2.1-.8 4.2-.7 6.3 0 1 0 2-.2 3-.4 1.4-.7 2.9-1.5 4.1-.7 1.1-1.4 2.2-2.5 3-.8.6-1.6 1.3-2.5 1.8-2.1 1.1-4.4 1.6-6 1.5-2.6-.1-4.3.2-6.1.5-1.9.4-3.7.8-5.5 1.6-2 .8-3.9 1.8-5.6 3-2.1 1.4-4 3-5.7 4.9-1.3 1.4-2.5 3-3.5 4.7-1.7 3-3.2 6.1-3.8 9.5-.4 1.9-.8 3.8-.8 5.8 0 .2-.1.4-.1.6 0 .3-.1.7 0 1 .3 1.2 0 2.5.4 3.8.4 1.3.5 2.8.9 4.2zM151.7 399.5c.5-1.8 1-3.6 1.2-5.5.2-1.5.4-3.1.4-4.6 0-.5-.2-1.1-.2-1.6-.1-1.7-.4-3.5-.8-5.1-.8-3.5-2.3-6.8-4.2-9.8-1.8-2.9-4.2-5.3-6.8-7.5-.5-.4-.9-.7-1.4-1.1-.8-.5-1.7-1.1-2.5-1.5-1.1-.6-2.3-1.2-3.5-1.7-1.6-.7-3.2-1.2-4.9-1.6-2.1-.4-4.1-.8-6.3-.8-1 0-2 0-3-.2-1.4-.3-2.7-.8-3.9-1.4-1-.5-2-1.3-2.8-2.1-1.3-1.3-2.3-2.9-3-4.6-.6-1.4-.7-2.9-.8-4.5-.1-1.3.1-2.6-.2-3.9-.3-1.3-.4-2.6-.7-3.8-.4-1.6-.9-3.3-1.6-4.8-.7-1.4-1.3-2.9-2.1-4.2-1.3-2.1-2.8-4-4.6-5.8-1.3-1.3-2.6-2.4-4.1-3.5-1.9-1.4-4-2.5-6.1-3.4-1.5-.6-3.1-1.2-4.8-1.5-2.1-.4-4.2-.8-6.4-.8-1.1 0-2.1-.2-3.2-.3-1.2-.1-2.2-.6-3.3-1.1-1.2-.6-2.3-1.4-3.3-2.4-1.3-1.4-2.3-2.9-2.9-4.7-.4-1.2-.7-2.3-.7-3.6.1-2 0-4-.4-5.9-.5-2.9-1.3-5.8-2.7-8.5-.6-1.2-1.2-2.4-2-3.5-.8-1.2-1.7-2.5-2.7-3.6-1.2-1.3-2.4-2.6-3.8-3.7-1.3-1-2.6-2-4-2.8-1.8-1-3.7-1.9-5.8-2.6-1.8-.6-3.5-1-5.4-1.2-.7-.1-1.5-.1-2.2-.2-1.1-.3-2.3-.2-3.4-.1-1.5.1-3.1.4-4.6.6-2.7.5-5.3 1.4-7.7 2.6-1.7.8-3.2 1.8-4.7 2.9-1.6 1.2-3 2.5-4.3 3.9-.7.7-1.3 1.6-1.9 2.4-1.1 1.3-2 2.9-2.8 4.4-1.2 2.2-2.1 4.6-2.7 7.1-.3 1.1-.4 2.2-.6 3.4-.1 1-.3 2-.3 3 0 1.2-.1 2.5.2 3.7.3 1.5.4 3 .7 4.4.3 1.4.7 2.8 1.3 4.1.7 1.8 1.5 3.5 2.5 5.1.7 1.2 1.6 2.3 2.4 3.4 1 1.4 2.2 2.5 3.4 3.6 1.6 1.4 3.2 2.6 5.1 3.7 2.3 1.3 4.8 2.4 7.4 3.1 2.8.7 5.6 1.2 8.5 1.1.8 0 1.5.1 2.3.2 2 .4 3.9 1.2 5.5 2.6 1.6 1.3 2.9 2.9 3.7 4.9.4 1 .8 2.1.8 3.2.1 1.7.2 3.3.3 5 0 .2 0 .3.1.5.1.8.3 1.5.4 2.3.2 1.8.8 3.5 1.4 5.2.7 2 1.6 3.9 2.8 5.7.8 1.3 1.7 2.6 2.7 3.8.9 1.1 2 2.1 3.1 3.1.5.5 1 .9 1.5 1.3 1.9 1.4 3.8 2.7 5.9 3.6 1.1.4 2.1 1 3.2 1.3 3 1 6.1 1.6 9.4 1.6 1 0 2.1 0 3.1.2 2.1.4 4 1.3 5.7 2.7 1.5 1.3 2.8 2.8 3.5 4.8.7 1.8 1.1 3.5 1.1 5.4 0 .8-.1 1.6-.2 2.4-.2 1.3-.6 2.5-1.2 3.7-1 1.9-2.4 3.6-4.3 4.8-2 1.3-4.2 2.1-6.7 2.1-1.3 0-2.7.1-4 .2-2.3.3-4.5.8-6.7 1.5-1.8.6-3.6 1.3-5.2 2.2-1.7.9-3.3 1.9-4.9 2.9-.8.5-1.6 1-2.2 1.7-1.2 1.2-2.1 2.7-2.9 4.2-1 1.6-1.9 3.3-2.6 5-.4 1-.9 2-1.2 3-.5 1.5-.8 3.1-1.2 4.7-.2 1-.4 2.1-.5 3.1l-.3 4.8c-.1.7-.2 1.4-.4 2.1-.5 1.7-1.3 3.2-2.5 4.5-.7.8-1.5 1.5-2.3 2.1-1 .7-2 1.3-3.2 1.6-1.3.4-2.6.7-4 .7-1.8 0-3.5.1-5.3.4-1.2.2-2.3.5-3.5.8-1.8.4-3.5 1.1-5.2 1.9-2.9 1.3-5.6 2.9-8.1 4.8-.2.2-.5.3-.7.5-.7.7-1.3 1.4-1.8 2.2-1.2 1.8-2.2 3.7-3.2 5.6-.9 1.9-1.6 3.9-2.2 5.9-.4 1.5-.7 3-.9 4.6s-.4 3.2-.4 4.8c0 .7.2 1.4.2 2.1 0 1.4.3 2.7.6 4.1.3 2 1 3.9 1.8 5.7.7 1.6 1.6 3.2 2.5 4.7.7 1.2 1.7 2.3 2.5 3.4 1.1 1.5 2.5 2.8 4 4 1.6 1.3 3.4 2.6 5.3 3.4 1.4.6 2.8 1.4 4.3 1.9 1.6.5 3.2 1 4.8 1.2 1.2.1 2.4.4 3.6.4h2.6v.1l2.7-.3c1.2-.2 2.4-.3 3.5-.6.7-.1 1.4-.4 2.1-.6 2.3-.6 4.4-1.6 6.5-2.7 1.2-.6 2.4-1.3 3.5-2.1.7-.4 1.4-.9 2-1.4.9-.7 1.4-1.6 2-2.5 1.2-1.8 2.3-3.6 3.3-5.6.8-1.5 1.4-3.1 2-4.7.5-1.5.9-3 1.2-4.5.4-2 .7-4 .7-6 0-.8-.1-1.6 0-2.3.4-2.1 1-4.2 2.4-5.9.6-.7 1.1-1.4 1.8-2 .8-.7 1.6-1.3 2.5-1.8 1.6-.9 3.4-1.3 5.1-1.5 1.5-.2 2.9 0 4.4-.2l3.9-.6c.9-.2 1.7-.5 2.6-.8 1.4-.5 2.9-1 4.3-1.6 1-.4 2-1 3-1.6 1.4-.8 2.8-1.6 4.1-2.6.7-.5 1.4-1.2 2-1.9.8-1.1 1.6-2.2 2.2-3.3.9-1.5 1.8-2.9 2.4-4.6.5-1.2 1-2.3 1.4-3.5.5-1.5.8-3.1 1.2-4.7.3-1.6.6-3.2.6-4.9 0-1.1 0-2.3.2-3.3.4-2.4 1.4-4.5 3-6.4 1.1-1.3 2.5-2.3 4.1-3.1.9-.4 1.9-.9 3-1 1.7-.1 3.4-.3 5.1-.4s3.4-.4 5-.8c3.2-.8 6.3-2.1 9-3.9.6-.4 1.2-.9 1.8-1.3 1.5-1.1 2.9-2.3 4.2-3.7 1.6-1.8 3.1-3.7 4.2-5.8 1.5-1.6 2.5-3.6 3.1-5.7zM250.9 470c-.6-2.3-1.5-4.4-2.7-6.5-.6-1-1.2-2-1.9-3-1.1-1.6-2.3-3.1-3.8-4.4-.8-.8-1.7-1.5-2.6-2.2-1.3-1.2-2.8-2-4.4-2.9-2.1-1.1-4.2-2-6.5-2.6-2.5-.6-5.1-1.1-7.7-1.1-.9 0-1.9 0-2.8-.2-1.4-.3-2.8-.8-4.1-1.6-1.5-.9-2.8-2-3.8-3.4-.7-.9-1.2-2-1.6-3-.6-1.5-.8-3-.8-4.6 0-1.3 0-2.6-.2-3.9-.3-1.8-.6-3.6-1.1-5.3-.6-2-1.4-4-2.4-5.8-.9-1.7-2-3.3-3.1-4.8l-1.5-1.8c-.9-.9-1.8-1.8-2.8-2.6-1.2-1-2.4-1.9-3.7-2.7-1.2-.7-2.5-1.4-3.8-1.9-1.2-.5-2.4-1-3.6-1.4-2.8-.7-5.7-1.4-8.6-1.3-1.5.1-2.9.1-4.4.4-1.9.3-3.8.7-5.6 1.4-1.4.6-2.8 1.1-4.1 1.7-1.5.8-3 1.7-4.3 2.7-1.8 1.4-3.5 2.9-4.9 4.6-.6.7-1.2 1.5-1.8 2.3-1.3 1.8-2.3 3.8-3.2 5.8-.5 1.1-.8 2.2-1.2 3.3-.5 1.4-.8 2.9-1 4.4-.1.8-.3 1.7-.3 2.5-.1 1.3-.1 2.5-.1 3.8 0 .9.2 1.9.4 2.8.2 1 .3 2 .5 3 .6 2.5 1.6 4.9 2.8 7.1 1.6 3.1 3.7 5.8 6.2 8.2 2.4 2.2 5 4 7.9 5.4 2.1 1 4.2 1.8 6.4 2.2 2.1.4 4.2.8 6.4.8.9 0 1.7.1 2.6.2.7.1 1.4.3 2 .5 1.2.4 2.4 1 3.4 1.8.9.7 1.7 1.5 2.4 2.3.9 1 1.6 2.2 2 3.6.3.9.5 1.8.7 2.7.1 1.1.2 2.2.2 3.3 0 1.9.4 3.8.7 5.6.5 2.6 1.4 5 2.6 7.3.8 1.5 1.7 3 2.7 4.4 1.1 1.7 2.5 3.2 4 4.6 1.1 1 2.3 2 3.5 2.8 1.4 1 2.8 1.8 4.3 2.5.8.4 1.7.8 2.5 1.1 1.8.6 3.5 1.1 5.4 1.4 1.7.3 3.3.5 5 .5 1.5 0 2.9-.2 4.4-.4 2.2-.2 4.4-.8 6.4-1.6 2.3-.9 4.5-2 6.5-3.4 2.2-1.5 4.2-3.3 6-5.3 1.9-2.2 3.4-4.5 4.6-7.1.6-1.2 1.2-2.4 1.5-3.6.5-1.7 1-3.3 1.2-5.1.1-1.4.4-2.7.4-4.1.1-2.2-.2-4.3-.5-6.4-.1-1-.4-2-.7-3z" class="st0"/>
	<path d="M155 393.1c.5-4.6 0-9-1.4-13.4-3.2-9.6-9.5-16.5-18.8-20.6-2.7-1.2-5.5-1.9-8.4-2.2l-4.5-.3c-2.6-.1-4.8-.9-6.8-2.6-2.4-2.1-3.7-4.8-3.7-8.1 0-3-.3-5.9-1.1-8.7-1.9-7.3-5.8-13.2-11.7-17.9-3.9-3.1-8.3-5.2-13.2-6.2-2.5-.5-5-.7-7.6-.8-3.5-.1-6.3-1.6-8.3-4.4-1.5-2-2.1-4.4-2.1-6.9 0-4.9-1-9.7-3.2-14.1-4.8-9.6-12.4-15.8-22.9-18.1-4.7-1.1-9.4-.9-14.1.1-5.4 1.3-10.2 3.7-14.3 7.4C7 281.6 3.4 288.2 2.1 296c-.7 4.5-.5 8.9.6 13.4 1.3 5.4 3.9 10.2 7.6 14.3 4.5 5 10.1 8.3 16.7 9.9 2.6.6 5.2.9 7.9.9 2.1 0 4 .5 5.7 1.7 3.2 2.1 4.9 5.1 5 9 .1 3 .3 6 1.1 8.9 2 7.6 6.2 13.8 12.6 18.5 4.4 3.2 9.3 5.2 14.7 5.9 1.8.2 3.5.3 5.3.4 2.5.1 4.7 1 6.6 2.7 2.9 2.6 3.9 5.9 3.5 9.7-.4 3.7-2.2 6.6-5.5 8.4-1.6.9-3.4 1.4-5.2 1.4-2.7 0-5.4.3-8.1 1-5.1 1.2-9.7 3.5-14 6.5-1.4 1-2.6 2.2-3.6 3.6-4.7 6.9-7.5 14.4-7.5 22.8 0 2.8-1.1 5.2-3.1 7.2-2.1 2.1-4.6 3.2-7.6 3.2-3.5 0-6.9.5-10.3 1.6-4.9 1.5-9.2 3.9-13.3 7-.9.7-1.7 1.5-2.2 2.4-1 1.7-2.1 3.3-3 5-2.8 5.4-4.3 11.1-4.3 17.2 0 2.2.2 4.4.6 6.5C3.5 491 6 496.2 10 500.7c5.8 6.5 13 10.2 21.7 11 4.2.4 8.3-.1 12.3-1.2 4.4-1.2 8.5-3.3 12.3-5.9 1.1-.8 2.1-1.7 2.9-2.8 1.9-2.6 3.5-5.4 4.9-8.3 1.4-3.1 2.4-6.3 2.9-9.6.3-1.9.3-3.8.4-5.7.2-4.4 2.2-7.7 6.2-9.7 1.7-.8 3.5-1 5.3-1.1 3.7 0 7.3-.7 10.8-1.9 4.2-1.5 8-3.6 11.6-6.3.7-.6 1.4-1.3 2-2 1.9-2.5 3.5-5.3 4.8-8.2 1.8-4.1 3-8.4 3.2-13 .1-1.2 0-2.4.2-3.6.8-5.4 5.3-9.3 10.7-9.3 2.6 0 5.1-.3 7.6-.8 5.5-1.3 10.3-3.8 14.5-7.6 6.2-5.9 9.8-13.1 10.7-21.6zM140.6 415c-.6.4-1.2.9-1.8 1.3-2.8 1.8-5.8 3.1-9 3.9-1.6.4-3.3.8-5 .8-1.7.1-3.4.2-5.1.4-1.1.1-2 .5-3 1-1.6.7-2.9 1.8-4.1 3.1-1.6 1.8-2.7 4-3 6.4-.2 1.1-.2 2.2-.2 3.3 0 1.7-.2 3.3-.6 4.9-.3 1.6-.7 3.2-1.2 4.7-.4 1.2-1 2.3-1.4 3.5-.6 1.6-1.5 3.1-2.4 4.6-.7 1.2-1.4 2.3-2.2 3.3-.6.7-1.2 1.4-2 1.9-1.3.9-2.7 1.7-4.1 2.6-1 .6-1.9 1.1-3 1.6-1.4.6-2.9 1.1-4.3 1.6-.8.3-1.7.6-2.6.8-1.3.3-2.6.4-3.9.6-1.5.3-2.9.1-4.4.2-1.8.2-3.5.6-5.1 1.5-.9.5-1.8 1.1-2.5 1.8-.7.6-1.2 1.3-1.8 2-1.4 1.7-2 3.8-2.4 5.9-.1.8 0 1.5 0 2.3 0 2-.3 4-.7 6-.3 1.5-.7 3-1.2 4.5-.6 1.6-1.3 3.2-2 4.7-1 1.9-2.1 3.8-3.3 5.6-.6.9-1.2 1.8-2 2.5-.7.5-1.3 1-2 1.4-1.2.7-2.3 1.4-3.5 2.1-2.1 1.1-4.2 2.1-6.5 2.7l-2.1.6c-1.2.2-2.3.4-3.5.6l-2.7.3v-.1h-2.6c-1.2 0-2.4-.3-3.6-.4-1.7-.1-3.3-.7-4.8-1.2s-2.9-1.2-4.3-1.9c-1.9-.9-3.7-2.1-5.3-3.4-1.5-1.2-2.9-2.5-4-4-.8-1.1-1.8-2.2-2.5-3.4-.9-1.5-1.8-3.1-2.5-4.7-.8-1.8-1.5-3.8-1.8-5.7-.2-1.3-.5-2.7-.6-4.1 0-.7-.2-1.4-.2-2.1 0-1.6.2-3.2.4-4.8.2-1.6.5-3.1.9-4.6.6-2 1.3-4 2.2-5.9.9-2 2-3.8 3.2-5.6.5-.8 1.2-1.5 1.8-2.2.2-.2.4-.3.7-.5 2.5-1.9 5.2-3.5 8.1-4.8 1.7-.8 3.4-1.4 5.2-1.9 1.2-.3 2.3-.6 3.5-.8 1.7-.3 3.5-.4 5.3-.4 1.4 0 2.7-.3 4-.7 1.2-.3 2.3-.9 3.2-1.6.8-.6 1.6-1.3 2.3-2.1 1.2-1.3 2.1-2.8 2.5-4.5.2-.7.3-1.4.4-2.1.1-1.6.1-3.2.3-4.8.1-1 .3-2.1.5-3.1.3-1.6.7-3.1 1.2-4.7.3-1 .7-2 1.2-3 .7-1.7 1.6-3.4 2.6-5 .9-1.5 1.8-3 2.9-4.2.6-.7 1.4-1.2 2.2-1.7 1.6-1 3.3-2 4.9-2.9 1.7-.9 3.4-1.6 5.2-2.2 2.2-.7 4.4-1.2 6.7-1.5 1.3-.2 2.7-.2 4-.2 2.4 0 4.6-.8 6.7-2.1 1.9-1.2 3.2-2.9 4.3-4.8.6-1.1 1-2.4 1.2-3.7.1-.8.2-1.6.2-2.4 0-1.9-.4-3.7-1.1-5.4-.7-1.9-2-3.4-3.5-4.8-1.6-1.4-3.5-2.3-5.7-2.7-1-.2-2.1-.2-3.1-.2-3.2 0-6.3-.6-9.4-1.6-1.1-.4-2.2-.9-3.2-1.3-2.1-.9-4-2.2-5.9-3.6-.5-.4-1-.8-1.5-1.3-1-1-2.1-2-3.1-3.1-1-1.2-1.9-2.5-2.7-3.8-1.1-1.8-2.1-3.7-2.8-5.7-.6-1.7-1.1-3.4-1.4-5.2-.1-.8-.3-1.5-.4-2.3 0-.2-.1-.3-.1-.5-.1-1.7-.2-3.3-.3-5-.1-1.1-.4-2.1-.8-3.2-.8-2-2.1-3.5-3.7-4.9-1.6-1.3-3.4-2.2-5.5-2.6-.8-.1-1.5-.2-2.3-.2-2.9.1-5.7-.4-8.5-1.1-2.6-.7-5.1-1.8-7.4-3.1-1.8-1-3.5-2.3-5.1-3.7-1.2-1.1-2.4-2.3-3.4-3.6-.8-1.1-1.7-2.2-2.4-3.4-1-1.6-1.8-3.4-2.5-5.1-.5-1.4-.9-2.7-1.3-4.1-.3-1.4-.4-2.9-.7-4.4-.2-1.2-.2-2.5-.2-3.7 0-1 .2-2 .3-3 .2-1.1.3-2.3.6-3.4.6-2.5 1.5-4.9 2.7-7.1.8-1.5 1.7-3.1 2.8-4.4.7-.8 1.2-1.6 1.9-2.4 1.3-1.4 2.7-2.8 4.3-3.9 1.5-1.1 3-2.1 4.7-2.9 2.5-1.2 5-2.2 7.7-2.6 1.5-.3 3-.5 4.6-.6 1.1-.1 2.3-.1 3.4.1.7.2 1.5.1 2.2.2 1.8.3 3.6.7 5.4 1.2 2 .7 3.9 1.6 5.8 2.6 1.4.8 2.7 1.8 4 2.8 1.4 1.1 2.6 2.4 3.8 3.7 1 1.1 1.8 2.3 2.7 3.6.7 1.1 1.4 2.3 2 3.5 1.3 2.7 2.1 5.6 2.7 8.5.3 2 .4 4 .4 5.9 0 1.2.3 2.4.7 3.6.6 1.8 1.6 3.3 2.9 4.7.9 1 2 1.8 3.3 2.4 1.1.5 2.1 1 3.3 1.1 1.1.1 2.1.3 3.2.3 2.2 0 4.2.4 6.4.8 1.7.3 3.2.9 4.8 1.5 2.2.9 4.2 2 6.1 3.4 1.4 1 2.8 2.2 4.1 3.5 1.8 1.7 3.3 3.7 4.6 5.8.8 1.3 1.4 2.8 2.1 4.2.8 1.5 1.2 3.2 1.6 4.8.3 1.3.4 2.5.7 3.8.3 1.3.1 2.6.2 3.9.1 1.5.2 3 .8 4.5.7 1.7 1.7 3.3 3 4.6.8.9 1.8 1.6 2.8 2.1 1.2.6 2.5 1.1 3.9 1.4 1 .2 2 .2 3 .2 2.1 0 4.2.3 6.3.8 1.7.4 3.3.9 4.9 1.6 1.2.5 2.3 1.1 3.5 1.7.9.5 1.7 1 2.5 1.5.5.3 1 .7 1.4 1.1 2.6 2.2 5 4.6 6.8 7.5 1.9 3.1 3.4 6.3 4.2 9.8.4 1.7.7 3.4.8 5.1 0 .5.2 1.1.2 1.6 0 1.5-.2 3.1-.4 4.6-.2 1.9-.7 3.7-1.2 5.5-.6 2.1-1.6 4.1-2.7 6.1-1.1 2.1-2.6 4-4.2 5.8-1.7 1-3.1 2.2-4.6 3.3zM172.2 378.2c5.1.8 10.2.5 15.1-1.2 10.1-3.4 17.1-10.3 20.8-20.3 1.3-3.5 1.9-7.2 2-10.9 0-1.2.1-2.4.4-3.6 1.3-4.9 5.8-8 10.4-8 2.4 0 4.8-.2 7.1-.8 6-1.3 11.2-4.1 15.6-8.3 6.8-6.6 10.2-14.7 10.3-24.1.1-4.1-.7-8.1-2.2-11.9-4.5-11.9-15.6-20.2-28.1-21.1-4.1-.3-8.2 0-12.1 1.3-10.9 3.6-18.1 10.8-21.8 21.7-1.1 3.3-1.6 6.8-1.6 10.3 0 1.7-.3 3.3-1.1 4.8-2 3.9-5.2 5.9-9.5 6.1-2.4.1-4.7.2-7.1.7-5.7 1.2-10.8 3.7-15.1 7.6-6.5 5.9-10.2 13.2-11 22-.5 4.9.2 9.6 1.8 14.2 4.3 11.6 14.5 19.8 26.1 21.5zm-25.9-33.4c0-.2.1-.4.1-.6 0-2 .4-3.9.8-5.8.7-3.4 2.1-6.5 3.8-9.5 1-1.7 2.2-3.3 3.5-4.7 1.7-1.8 3.6-3.5 5.7-4.9 1.8-1.2 3.7-2.2 5.6-3 1.8-.8 3.6-1.2 5.5-1.6 1.8-.3 3.5-.6 6.1-.5 1.6.1 3.9-.4 6-1.5.9-.5 1.7-1.1 2.5-1.8 1-.8 1.8-1.9 2.5-3 .8-1.3 1.2-2.7 1.5-4.1.2-1 .2-2 .2-3-.1-2.1.3-4.2.7-6.3.3-1.7.9-3.3 1.5-4.9s1.4-3.1 2.3-4.6c1.1-1.8 2.3-3.5 3.8-5.1 1.3-1.4 2.7-2.8 4.4-3.9.7-.4 1.3-1 2-1.4l3.3-1.8c.5-.3 1-.5 1.6-.7 2.1-.8 4.2-1.4 6.4-1.8 2.6-.5 5.2-.5 7.7-.3 1.3.1 2.6.4 4 .7 2.7.5 5.1 1.5 7.5 2.7 2.7 1.4 5.2 3.2 7.4 5.4 1.4 1.4 2.7 2.9 3.8 4.5 1.3 1.9 2.4 3.9 3.3 6 .9 2.2 1.5 4.5 1.9 6.8.2.9.2 1.9.2 2.8 0 .3.1.7.1 1v2.4c0 .3-.1.5-.1.8 0 2.1-.4 4-.9 6-.6 2.2-1.4 4.3-2.5 6.4-1 2-2.3 3.9-3.7 5.6s-2.9 3.2-4.6 4.5c-2.2 1.8-4.7 3.2-7.4 4.3-2.1.9-4.3 1.4-6.5 1.9-1.6.3-3.1.5-4.7.4-2.3 0-4.5.3-6.6 1.4-.8.4-1.6 1-2.3 1.6-1.9 1.6-3.2 3.6-4 6-.2.6-.2 1.2-.3 1.8-.2 1.2-.2 2.5-.2 3.7 0 1-.2 2-.3 3-.1.8-.2 1.5-.4 2.3-.4 1.5-.7 3-1.3 4.4-.5 1-.9 2.1-1.4 3.1-1 2.1-2.2 4-3.6 5.7-1.3 1.6-2.7 3.2-4.4 4.4-1.2.9-2.3 1.8-3.5 2.5-1.7 1-3.5 1.9-5.4 2.6-1.4.5-2.8 1-4.2 1.2-1.3.2-2.6.6-4 .6-.7 0-1.3.2-2 .2-2.1 0-4.3-.3-6.4-.7-1.7-.3-3.4-.9-5.1-1.5-.3-.1-.6-.3-.9-.4-1.2-.6-2.3-1.1-3.5-1.7-.9-.5-1.7-1.1-2.5-1.7-1-.8-2-1.6-2.9-2.4-1.6-1.4-3-3.1-4.2-4.8-.7-1-1.4-2.1-2-3.1-.5-.8-.7-1.7-1.2-2.6-.7-1.3-1.1-2.6-1.4-4-.4-1.4-.5-2.9-.9-4.3-.3-1.3-.1-2.5-.4-3.8-.1-.3 0-.6 0-.9zM252.9 470c-2.7-9.4-8.3-16.4-17-21-3.4-1.8-7-2.9-10.8-3.3-1.5-.1-2.9-.2-4.4-.3-3.5-.2-6.3-1.6-8.4-4.4-1.5-2-2.1-4.2-2.1-6.6 0-2.2-.2-4.4-.6-6.6-1.2-6.2-4-11.7-8.3-16.3-5.5-5.8-12.2-9.2-20.2-10.2-3.9-.5-7.8-.2-11.6.8-5.6 1.4-10.5 4.1-14.6 8-5.9 5.6-9.3 12.5-10.2 20.6-.5 4.2-.2 8.4 1 12.4 1.9 6.8 5.6 12.5 11 17 4 3.3 8.6 5.5 13.7 6.6 2.4.5 4.8.7 7.3.8 3.9.1 7 1.8 9.1 5.2 1.1 1.7 1.6 3.6 1.6 5.7 0 4.8.9 9.4 2.8 13.7 4.7 10.7 15.1 18.7 27.8 19.6 4.2.3 8.3-.2 12.3-1.5 8.8-3 15.3-8.7 19.4-17.1 1.6-3.2 2.6-6.5 3-10.1.2-1.5.1-2.9.2-4.4.2-2.8-.2-5.7-1-8.6zm-.8 9.4c0 1.4-.3 2.8-.4 4.1-.1 1.8-.7 3.4-1.2 5.1-.3 1.3-.9 2.5-1.5 3.6-1.2 2.6-2.7 5-4.6 7.1-1.8 2-3.8 3.8-6 5.3-2 1.4-4.2 2.5-6.5 3.4-2.1.8-4.2 1.3-6.4 1.6-1.5.2-2.9.4-4.4.4-1.7 0-3.4-.2-5-.5-1.9-.3-3.6-.8-5.4-1.4-.9-.3-1.7-.7-2.5-1.1-1.5-.7-3-1.5-4.3-2.5-1.2-.9-2.4-1.8-3.5-2.8-1.5-1.3-2.9-2.9-4-4.6-1-1.4-1.9-2.9-2.7-4.4-1.2-2.3-2.1-4.7-2.6-7.3-.4-1.9-.8-3.7-.7-5.6 0-1.1 0-2.2-.2-3.3-.1-.9-.4-1.8-.7-2.7-.4-1.3-1.1-2.5-2-3.6-.7-.8-1.5-1.6-2.4-2.3-1.1-.8-2.2-1.3-3.4-1.8-.7-.2-1.3-.4-2-.5-.9-.1-1.7-.2-2.6-.2-2.2.1-4.3-.3-6.4-.8-2.2-.5-4.3-1.2-6.4-2.2-2.9-1.4-5.5-3.2-7.9-5.4-2.6-2.4-4.6-5.1-6.2-8.2-1.2-2.3-2.1-4.7-2.8-7.1-.2-1-.4-2-.5-3-.1-.9-.3-1.9-.4-2.8 0-1.3 0-2.5.1-3.8 0-.8.2-1.7.3-2.5.2-1.5.5-3 1-4.4.4-1.1.7-2.2 1.2-3.3.9-2 1.9-4 3.2-5.8.6-.8 1.2-1.6 1.8-2.3 1.4-1.8 3.1-3.3 4.9-4.6 1.4-1.1 2.8-2 4.3-2.7 1.3-.7 2.7-1.2 4.1-1.7 1.8-.7 3.7-1.1 5.6-1.4 1.4-.3 2.9-.3 4.4-.4 3-.1 5.8.6 8.6 1.3 1.2.3 2.4.8 3.6 1.4 1.3.6 2.6 1.2 3.8 1.9 1.3.8 2.5 1.8 3.7 2.7 1 .8 1.9 1.7 2.8 2.6.5.5 1 1.1 1.5 1.8 1.2 1.5 2.2 3.1 3.1 4.8 1 1.9 1.8 3.8 2.4 5.8.5 1.7.8 3.5 1.1 5.3.2 1.3.2 2.6.2 3.9 0 1.6.2 3.1.8 4.6.4 1.1 1 2.1 1.6 3 1 1.4 2.3 2.5 3.8 3.4 1.2.8 2.7 1.2 4.1 1.6.9.2 1.9.2 2.8.2 2.6-.1 5.2.4 7.7 1.1 2.3.6 4.4 1.5 6.5 2.6 1.5.8 3 1.7 4.4 2.9.9.8 1.8 1.4 2.6 2.2 1.4 1.3 2.7 2.8 3.8 4.4.7 1 1.3 2 1.9 3 1.2 2 2 4.2 2.7 6.5.3 1 .6 2 .7 3 .4 2.1.6 4.2.5 6.4z" class="st0"/>
</svg>
