<?xml version="1.0" encoding="utf-8"?>
<!-- Generator: Adobe Illustrator 26.4.1, SVG Export Plug-In . SVG Version: 6.00 Build 0)  -->
<svg version="1.1" id="a" xmlns="http://www.w3.org/2000/svg" xmlns:xlink="http://www.w3.org/1999/xlink" x="0px" y="0px"
	 viewBox="0 0 796.3 116" style="enable-background:new 0 0 796.3 116;" xml:space="preserve">
<g>
	<rect x="621.4" y="11.8" transform="matrix(0.7071 -0.7071 0.7071 0.7071 170.4559 462.7625)" width="44.9" height="27.6"/>
	<rect x="630" y="67.9" transform="matrix(0.7071 -0.7071 0.7071 0.7071 124.6815 481.7217)" width="27.6" height="44.9"/>
	<polygon points="573,116 631,58 631,58 631,58 573,0 553.5,19.5 591.9,58 553.5,96.5 	"/>
</g>
<g>
	<rect x="748.3" y="11.8" transform="matrix(0.7071 -0.7071 0.7071 0.7071 207.6219 552.4882)" width="44.9" height="27.6"/>
	<rect x="756.9" y="67.9" transform="matrix(0.7071 -0.7071 0.7071 0.7071 161.8468 571.4477)" width="27.6" height="44.9"/>
	<polygon points="699.9,116 757.9,58 757.9,58 757.9,58 699.9,0 680.4,19.5 718.8,58 680.4,96.5 	"/>
</g>
<g>
	<path d="M76.3,69.6h28.6c-3.2,24.5-24.5,41.8-50.7,41.8C23.7,111.4,0,88.4,0,58.1S23.7,4.6,54.1,4.6c26.2,0,47.5,17.5,50.7,42H76.3
		C74.2,36.8,65.7,30,54.1,30c-16,0-26.2,12.6-26.2,28.1S38.2,86,54.1,86C65.7,86,74.2,79.4,76.3,69.6z"/>
	<path d="M227.7,58.1c0,31.3-22.2,53.3-53.9,53.3c-32,0-54.1-22-54.1-53.3c0-31.5,22.2-53.5,54.1-53.5
		C205.6,4.6,227.7,26.6,227.7,58.1z M199.8,58.1c0-16.6-10.7-28.1-26-28.1c-15.6,0-26.2,11.5-26.2,28.1c0,16.4,10.7,27.9,26.2,27.9
		C189.2,86,199.8,74.5,199.8,58.1z"/>
	<path d="M411.3,52.3v56.5h-27.9V52.3c0-15.8-8.3-22.4-20.7-22.4c-7.7,0-15.6,2.6-22.2,10.7c0.4,3.2,0.6,6.4,0.6,10v58.2h-27.9V50.6
		c0-15.6-8.3-20.7-19-20.7c-8.7,0-16.6,3.4-23.2,11.9v66.9h-27.9V7.2H271V14c6.8-5.8,14.7-9.4,26.9-9.4c13.4,0,24.7,4.3,32.4,12.8
		c10-8.5,20.5-12.8,34.3-12.8C392.1,4.6,411.3,21.6,411.3,52.3L411.3,52.3z"/>
	<path d="M536.3,7.2v101.7h-27.9v-5.8c-7.9,5.1-17.9,8.3-29.2,8.3c-28.1,0-50.7-23.9-50.7-53.3c0-29.6,22.6-53.5,50.7-53.5
		c11.3,0,21.3,3.2,29.2,8.3V7.2L536.3,7.2L536.3,7.2z M508.4,74.1V41.9c-6.6-9.4-15.8-11.9-24.9-11.9c-16,0-27.1,12.8-27.1,28.1
		c0,15.1,11.1,27.9,27.1,27.9C492.6,86,501.8,83.5,508.4,74.1L508.4,74.1z"/>
</g>
</svg>
