<svg version="1.1" xmlns="http://www.w3.org/2000/svg" xmlns:xlink="http://www.w3.org/1999/xlink" x="0px" y="0px" viewBox="0 0 796.3 210.3" style="enable-background:new 0 0 796.3 210.3;" xml:space="preserve">
                <style type="text/css">
                    .st0{fill:#FFFFFF;}
                </style>
                <g>
                    <path class="st0" d="M65.1,141.8v51.1h-5.5v-3.5c-3,2.7-7,4.3-11.7,4.3c-9.6,0-17.2-7.8-17.2-17.6c0-9.8,7.6-17.6,17.2-17.6
		c4.8,0,8.8,1.6,11.7,4.3v-21.2L65.1,141.8L65.1,141.8z M59.6,183v-13.7c-2.7-4-6.6-5.7-11-5.7c-7.1,0-12.5,5.6-12.5,12.5
		s5.4,12.5,12.5,12.5C53,188.7,56.9,187,59.6,183L59.6,183z"></path>
                    <path class="st0" d="M75,146.9c0-2.1,1.6-3.7,3.7-3.7s3.7,1.6,3.7,3.7c0,2-1.7,3.6-3.7,3.6S75,149,75,146.9z M81.5,159.5v33.4h-5.5
		v-33.4H81.5z"></path>
                    <path class="st0" d="M124.7,159.5v35.1c0,9.8-6.7,15.8-16.6,15.8c-9.2,0-15.8-5.2-17-12.6h5.6c0.9,4.5,5.1,7.6,11.4,7.6
		c6.7,0,11.2-4,11.2-10.8v-6.3c-3.1,2.7-7.3,4.3-12.1,4.3c-9.6,0-16.8-7.6-16.8-16.8c0-9.9,7.3-17.1,16.8-17.1c4.8,0,9,1.6,12.1,4.3
		v-3.5L124.7,159.5L124.7,159.5z M119.2,181.9v-12.5c-2.8-4.1-7-5.9-11.4-5.9c-7.1,0-12.1,5.3-12.1,12.3c0,6.4,5,12,12.1,12
		C112.2,187.8,116.4,186,119.2,181.9L119.2,181.9z"></path>
                    <path class="st0" d="M134.7,146.9c0-2.1,1.6-3.7,3.7-3.7s3.7,1.6,3.7,3.7c0,2-1.7,3.6-3.7,3.6S134.7,149,134.7,146.9z M141.1,159.5
		v33.4h-5.5v-33.4H141.1z"></path>
                    <path class="st0" d="M175.2,192.5c-2.7,0.9-5,1.2-7.1,1.2c-8.2,0-12.2-4.5-12.2-13.2v-16.3h-8.7v-4.7h8.7v-12.3h5.5v12.3H174v4.7
		h-12.6v16.3c0,5.8,2.4,8.1,7.2,8.1c1.9,0,4-0.5,5.8-1.2L175.2,192.5L175.2,192.5z"></path>
                    <path class="st0" d="M213.7,159.5v33.4h-5.5v-3.5c-3,2.7-7,4.3-11.7,4.3c-9.6,0-17.2-7.8-17.2-17.6c0-9.7,7.6-17.6,17.2-17.6
		c4.8,0,8.8,1.6,11.7,4.3v-3.5H213.7z M208.2,183v-13.7c-2.7-4-6.6-5.7-11-5.7c-7.1,0-12.5,5.6-12.5,12.5s5.4,12.5,12.5,12.5
		C201.6,188.7,205.5,187,208.2,183L208.2,183z"></path>
                    <path class="st0" d="M229.8,182.7c0,4.1,1.8,6,5.3,6c1.5,0,3.7-0.4,5.5-1l0.8,4.9c-2.7,0.8-5,1.2-7.1,1.2c-6.4,0-9.9-3.7-9.9-10.8
		v-41.3h5.5L229.8,182.7L229.8,182.7z"></path>
                    <path class="st0" d="M302.2,159.5v35.1c0,9.8-6.7,15.8-16.6,15.8c-9.2,0-15.8-5.2-17-12.6h5.6c0.9,4.5,5.1,7.6,11.4,7.6
		c6.7,0,11.2-4,11.2-10.8v-6.3c-3.1,2.7-7.3,4.3-12.1,4.3c-9.6,0-16.8-7.6-16.8-16.8c0-9.9,7.3-17.1,16.8-17.1c4.8,0,9,1.6,12.1,4.3
		v-3.5L302.2,159.5L302.2,159.5z M296.7,181.9v-12.5c-2.8-4.1-7-5.9-11.4-5.9c-7.1,0-12.1,5.3-12.1,12.3c0,6.4,5,12,12.1,12
		C289.7,187.8,293.9,186,296.7,181.9L296.7,181.9z"></path>
                    <path class="st0" d="M331,158.7v5.2c-5.5,0.1-9.9,2.7-12.9,7.3v21.7h-5.5v-33.4h5.5v5.5C321.2,161,325.7,158.7,331,158.7L331,158.7
		z"></path>
                    <path class="st0" d="M370.2,176.2c0,10.1-7.6,17.6-17.7,17.6c-10.2,0-17.8-7.5-17.8-17.6s7.6-17.6,17.8-17.6
		C362.6,158.6,370.2,166.1,370.2,176.2z M364.6,176.2c0-7.2-5.2-12.5-12.2-12.5c-7.1,0-12.3,5.3-12.3,12.5s5.3,12.5,12.3,12.5
		C359.4,188.7,364.6,183.4,364.6,176.2z"></path>
                    <path class="st0" d="M425.3,159.5l-12.2,33.4h-5l-8.6-25.6l-8.6,25.6h-5l-12.2-33.4h5.9l8.8,25.1l8.7-25.1h4.8l8.7,25.1l8.8-25.1
		H425.3L425.3,159.5z"></path>
                    <path class="st0" d="M457.5,192.5c-2.7,0.9-5,1.2-7.1,1.2c-8.2,0-12.2-4.5-12.2-13.2v-16.3h-8.7v-4.7h8.7v-12.3h5.5v12.3h12.6v4.7
		h-12.6v16.3c0,5.8,2.4,8.1,7.2,8.1c1.9,0,4-0.5,5.8-1.2L457.5,192.5L457.5,192.5z"></path>
                    <path class="st0" d="M496.3,173.7v19.1h-5.5V174c0-6.8-4-10.4-9.9-10.4c-4,0-8.1,2-10.9,5.8v23.5h-5.5v-51.1h5.5v21.5
		c3.1-3,7.2-4.6,12-4.6C490.5,158.6,496.3,164.3,496.3,173.7L496.3,173.7z"></path>
                    <path class="st0" d="M558.8,159.5v33.4h-5.5v-3.5c-3,2.7-7,4.3-11.7,4.3c-9.6,0-17.2-7.8-17.2-17.6c0-9.7,7.6-17.6,17.2-17.6
		c4.8,0,8.8,1.6,11.7,4.3v-3.5H558.8z M553.4,183v-13.7c-2.7-4-6.6-5.7-11-5.7c-7.1,0-12.5,5.6-12.5,12.5s5.4,12.5,12.5,12.5
		C546.7,188.7,550.6,187,553.4,183L553.4,183z"></path>
                    <path class="st0" d="M601.8,159.5v35.1c0,9.8-6.7,15.8-16.6,15.8c-9.2,0-15.8-5.2-17-12.6h5.6c0.9,4.5,5.1,7.6,11.4,7.6
		c6.7,0,11.2-4,11.2-10.8v-6.3c-3.1,2.7-7.3,4.3-12.1,4.3c-9.6,0-16.8-7.6-16.8-16.8c0-9.9,7.3-17.1,16.8-17.1c4.8,0,9,1.6,12.1,4.3
		v-3.5L601.8,159.5L601.8,159.5z M596.3,181.9v-12.5c-2.8-4.1-7-5.9-11.4-5.9c-7.1,0-12.1,5.3-12.1,12.3c0,6.4,5,12,12.1,12
		C589.3,187.8,593.5,186,596.3,181.9L596.3,181.9z"></path>
                    <path class="st0" d="M643.9,177.8H616c0.6,6.2,4.9,11,11.9,11c4.2,0,7.5-1.5,8.9-4.3h6.1c-2.1,5.8-7.8,9.2-15,9.2
		c-10.3,0-17.4-7.7-17.4-17.6s7.1-17.6,17.1-17.6C638.3,158.6,645,166.9,643.9,177.8L643.9,177.8z M616.1,173.9h22.4
		c-0.3-6.6-4.5-10.6-10.9-10.6C621,163.4,616.9,168,616.1,173.9z"></path>
                    <path class="st0" d="M684.3,173.7v19.1h-5.5V174c0-6.8-4-10.4-9.9-10.4c-4,0-8.1,2-10.9,5.8v23.5h-5.5v-33.4h5.5v3.7
		c3.1-3,7.2-4.6,12-4.6C678.4,158.6,684.3,164.3,684.3,173.7L684.3,173.7z"></path>
                    <path class="st0" d="M719.6,181.5h5.7c-1.3,7.3-7.7,12.2-15.8,12.2c-10.2,0-17.5-7.7-17.5-17.6s7.3-17.6,17.5-17.6
		c8.1,0,14.5,5,15.8,12.3h-5.7c-1-4.4-4.9-7.3-10.1-7.3c-7.3,0-12,5.6-12,12.5c0,7,4.8,12.5,12,12.5
		C714.7,188.7,718.6,185.9,719.6,181.5L719.6,181.5z"></path>
                    <path class="st0" d="M767.6,159.5l-22.6,50h-5.8l7-15.5l-17.2-34.6h5.9l14,28.7l13-28.7L767.6,159.5L767.6,159.5z"></path>
                </g>
                <g>
                    <g>

                        <rect x="621.4" y="11.8" transform="matrix(0.7071 -0.7071 0.7071 0.7071 170.4559 462.7625)" class="st0" width="44.9" height="27.6"></rect>

                        <rect x="630" y="67.9" transform="matrix(0.7071 -0.7071 0.7071 0.7071 124.6815 481.7217)" class="st0" width="27.6" height="44.9"></rect>
                        <polygon class="st0" points="573,116 631,58 631,58 631,58 573,0 553.5,19.5 591.9,58 553.5,96.5 		"></polygon>
                    </g>
                    <g>

                        <rect x="748.3" y="11.8" transform="matrix(0.7071 -0.7071 0.7071 0.7071 207.6219 552.4882)" class="st0" width="44.9" height="27.6"></rect>

                        <rect x="756.9" y="67.9" transform="matrix(0.7071 -0.7071 0.7071 0.7071 161.8468 571.4477)" class="st0" width="27.6" height="44.9"></rect>
                        <polygon class="st0" points="699.9,116 757.9,58 757.9,58 757.9,58 699.9,0 680.4,19.5 718.8,58 680.4,96.5 		"></polygon>
                    </g>
                    <g>
                        <path class="st0" d="M76.3,69.6h28.6c-3.2,24.5-24.5,41.8-50.7,41.8C23.7,111.4,0,88.4,0,58.1S23.7,4.6,54.1,4.6
			c26.2,0,47.5,17.5,50.7,42H76.3C74.2,36.8,65.7,30,54.1,30c-16,0-26.2,12.6-26.2,28.1S38.2,86,54.1,86
			C65.7,86,74.2,79.4,76.3,69.6z"></path>
                        <path class="st0" d="M227.7,58.1c0,31.3-22.2,53.3-53.9,53.3c-32,0-54.1-22-54.1-53.3c0-31.5,22.2-53.5,54.1-53.5
			C205.6,4.6,227.7,26.6,227.7,58.1z M199.8,58.1c0-16.6-10.7-28.1-26-28.1c-15.6,0-26.2,11.5-26.2,28.1c0,16.4,10.7,27.9,26.2,27.9
			C189.2,86,199.8,74.5,199.8,58.1z"></path>
                        <path class="st0" d="M411.3,52.3v56.5h-27.9V52.3c0-15.8-8.3-22.4-20.7-22.4c-7.7,0-15.6,2.6-22.2,10.7c0.4,3.2,0.6,6.4,0.6,10
			v58.2h-27.9V50.6c0-15.6-8.3-20.7-19-20.7c-8.7,0-16.6,3.4-23.2,11.9v66.9h-27.9V7.2H271V14c6.8-5.8,14.7-9.4,26.9-9.4
			c13.4,0,24.7,4.3,32.4,12.8c10-8.5,20.5-12.8,34.3-12.8C392.1,4.6,411.3,21.6,411.3,52.3L411.3,52.3z"></path>
                        <path class="st0" d="M536.3,7.2v101.7h-27.9v-5.8c-7.9,5.1-17.9,8.3-29.2,8.3c-28.1,0-50.7-23.9-50.7-53.3
			c0-29.6,22.6-53.5,50.7-53.5c11.3,0,21.3,3.2,29.2,8.3V7.2L536.3,7.2L536.3,7.2z M508.4,74.1V41.9c-6.6-9.4-15.8-11.9-24.9-11.9
			c-16,0-27.1,12.8-27.1,28.1c0,15.1,11.1,27.9,27.1,27.9C492.6,86,501.8,83.5,508.4,74.1L508.4,74.1z"></path>
                    </g>
                </g>
            </svg>